<svg id="google-plus_1_" data-name="google-plus (1)" xmlns="http://www.w3.org/2000/svg" width="74" height="74" viewBox="0 0 74 74">
  <g id="Group_1204" data-name="Group 1204" transform="translate(0 0)">
    <ellipse id="XMLID_30_" cx="37" cy="37" rx="37" ry="37" fill="#dc4e41"/>
  </g>
  <g id="Group_1206" data-name="Group 1206" transform="translate(12.873 23.379)">
    <path id="Path_2470" data-name="Path 2470" d="M19.526,50.723A15.247,15.247,0,0,0,29.811,65.145c5.681,1.909,12.667.481,16.447-4.385,2.76-3.409,3.388-7.954,3.089-12.2-4.866-.044-9.731-.029-14.589-.022-.008,1.733,0,3.46.007,5.193,2.913.08,5.827.044,8.74.1a8.428,8.428,0,0,1-4.953,5.776,9.636,9.636,0,1,1-6.49-18.13c3.125-1.1,6.344.139,9.018,1.763,1.355-1.268,2.622-2.622,3.868-3.992a15.257,15.257,0,0,0-10.955-3.758C26.118,35.586,19.227,42.856,19.526,50.723Z" transform="translate(-19.517 -35.445)" fill="#dc4e41"/>
    <path id="Path_2471" data-name="Path 2471" d="M76.835,48.668c-.015,1.45-.03,2.907-.037,4.356-1.457.015-2.906.022-4.356.029v4.341c1.45.007,2.907.015,4.356.03.015,1.45.015,2.9.029,4.356,1.442,0,2.892-.007,4.341,0,.008-1.457.015-2.906.03-4.363l4.356-.022V53.053c-1.449-.007-2.906-.015-4.356-.029-.008-1.45-.022-2.907-.03-4.356Z" transform="translate(-37.535 -39.947)" fill="#dc4e41"/>
    <g id="Group_1205" data-name="Group 1205">
      <path id="Path_2472" data-name="Path 2472" d="M19.526,50.722c-.3-7.867,6.592-15.136,14.466-15.231A15.256,15.256,0,0,1,44.948,39.25c-1.246,1.37-2.514,2.724-3.868,3.992-2.674-1.624-5.893-2.862-9.018-1.763a9.636,9.636,0,1,0,6.49,18.13,8.43,8.43,0,0,0,4.953-5.776c-2.913-.058-5.827-.022-8.74-.1-.007-1.733-.015-3.46-.007-5.193,4.858-.007,9.724-.022,14.589.022.3,4.247-.328,8.792-3.089,12.2-3.781,4.866-10.765,6.294-16.447,4.385A15.247,15.247,0,0,1,19.526,50.722Z" transform="translate(-19.517 -35.445)" fill="#fff"/>
      <path id="Path_2473" data-name="Path 2473" d="M76.835,48.668h4.333c.008,1.45.022,2.907.03,4.356,1.449.015,2.906.022,4.356.029v4.341l-4.356.022c-.015,1.457-.022,2.906-.03,4.363-1.449-.007-2.9,0-4.341,0-.014-1.457-.014-2.906-.029-4.356-1.449-.015-2.906-.022-4.356-.03V53.052q2.175-.011,4.356-.029C76.8,51.575,76.82,50.118,76.835,48.668Z" transform="translate(-37.535 -39.947)" fill="#fff"/>
    </g>
  </g>
</svg>
