<svg xmlns="http://www.w3.org/2000/svg" xmlns:xlink="http://www.w3.org/1999/xlink" width="214.09" height="162.281" viewBox="0 0 214.09 162.281">
  <defs>
    <linearGradient id="linear-gradient3" x1="0.5" x2="0.5" y2="1" gradientUnits="objectBoundingBox">
      <stop offset="0" stop-color="#77d9f7"/>
      <stop offset="1" stop-color="#064295"/>
    </linearGradient>
    <radialGradient id="radial-gradient3" cx="0.354" cy="0.941" r="1.12" gradientTransform="matrix(-0.004, -1, 1.041, -0.008, -0.624, 1.303)" gradientUnits="objectBoundingBox">
      <stop offset="0" stop-color="#86e3f8"/>
      <stop offset="1" stop-color="#1cb4d8"/>
    </radialGradient>
  </defs>
  <g id="check" transform="translate(0 -61.951)">
    <path id="Path_2466" data-name="Path 2466" d="M140.815,62.173H21.374A21.374,21.374,0,0,0,0,83.547V202.988a21.374,21.374,0,0,0,21.374,21.374H140.815a21.374,21.374,0,0,0,21.374-21.374V83.547A21.374,21.374,0,0,0,140.815,62.173Z" transform="translate(0 -0.129)" fill="url(#linear-gradient3)"/>
    <path id="Path_2467" data-name="Path 2467" d="M161.159,113.929h-99.9a9.5,9.5,0,0,0-9.5,9.5v99.9a9.5,9.5,0,0,0,9.5,9.5h99.9a9.5,9.5,0,0,0,9.5-9.5v-99.9A9.5,9.5,0,0,0,161.159,113.929Z" transform="translate(-30.115 -30.244)" fill="#fff"/>
    <path id="Path_2468" data-name="Path 2468" d="M61.33,133.007a9.5,9.5,0,0,1,9.5-9.5h99.828v-.072a9.5,9.5,0,0,0-9.5-9.5h-99.9a9.5,9.5,0,0,0-9.5,9.5v99.9a9.5,9.5,0,0,0,9.5,9.5h.071Z" transform="translate(-30.115 -30.244)" opacity="0.1"/>
    <path id="Path_2469" data-name="Path 2469" d="M148.285,191.315a14.876,14.876,0,0,1-10.385-4.224l-48.832-47.6a14.879,14.879,0,0,1,20.771-21.309l35.7,34.8C159.832,132.6,189.648,96.79,240.4,64.3a14.879,14.879,0,0,1,16.044,25.062c-68.163,43.638-94.708,93.463-94.968,93.961a14.874,14.874,0,0,1-13.189,7.991Z" transform="translate(-49.211 0)" fill="url(#radial-gradient3)"/>
  </g>
</svg>
