<svg xmlns="http://www.w3.org/2000/svg" width="74" height="74" viewBox="0 0 74 74">
  <g id="vk_1_" data-name="vk (1)" transform="translate(0)">
    <g id="Group_1207" data-name="Group 1207" transform="translate(0 0)">
      <ellipse id="XMLID_11_" cx="37" cy="37" rx="37" ry="37" fill="#4d76a1"/>
    </g>
    <path id="Path_2475" data-name="Path 2475" d="M41.71,66.456h2.9a2.45,2.45,0,0,0,1.325-.579,2.125,2.125,0,0,0,.4-1.276s-.057-3.9,1.752-4.47c1.783-.565,4.072,3.766,6.5,5.431a4.6,4.6,0,0,0,3.229.984l6.488-.09s3.394-.209,1.785-2.878c-.132-.218-.937-1.974-4.824-5.582-4.068-3.776-3.523-3.165,1.377-9.7,2.985-3.978,4.178-6.406,3.805-7.446-.356-.991-2.551-.729-2.551-.729l-7.305.046a1.658,1.658,0,0,0-.943.166A2.047,2.047,0,0,0,55,41.12a42.3,42.3,0,0,1-2.7,5.7c-3.253,5.524-4.554,5.815-5.085,5.472-1.237-.8-.928-3.211-.928-4.925,0-5.353.812-7.585-1.581-8.163a12.474,12.474,0,0,0-3.409-.339c-2.607-.027-4.813.008-6.062.62-.831.407-1.472,1.314-1.082,1.366a3.278,3.278,0,0,1,2.156,1.084,7.048,7.048,0,0,1,.722,3.306s.43,6.3-1,7.084c-.985.537-2.336-.559-5.236-5.571a46.585,46.585,0,0,1-2.608-5.4,2.171,2.171,0,0,0-.6-.814,3.027,3.027,0,0,0-1.123-.453l-6.942.046s-1.042.029-1.425.482c-.34.4-.027,1.237-.027,1.237S23.506,54.559,29.66,60.967c5.643,5.875,12.05,5.489,12.05,5.489Z" transform="translate(-6.107 -13.228)" fill="#fff" fill-rule="evenodd"/>
  </g>
</svg>
