<svg height="512pt" viewBox="0 -40 512 512" width="512pt" xmlns="http://www.w3.org/2000/svg"><path d="m443.53125 170.050781c-37.75 0-68.472656 30.160157-68.472656 67.21875v64.878907c0 .941406-.96875 1.730468-2.128906 1.730468h-230.480469c-1.148438 0-2.128907-.789062-2.128907-1.730468v-64.878907c0-37.058593-30.265624-67.21875-71.851562-67.21875-37.75 0-68.46875 30.160157-68.46875 67.21875v81.871094c0 62.75 52.109375 113.800781 116.160156 113.800781h279.679688c64.050781 0 116.160156-51.050781 116.160156-113.800781v-81.871094c0-37.058593-30.71875-67.21875-68.46875-67.21875zm0 0" fill="#ddebf0"/><path d="m512 237.269531v81.871094c0 62.75-52.109375 113.800781-116.160156 113.800781h-139.839844v-129.0625h116.929688c1.160156 0 2.128906-.789062 2.128906-1.730468v-64.878907c0-37.058593 30.722656-67.21875 68.472656-67.21875s68.46875 30.160157 68.46875 67.21875zm0 0" fill="#c5e1e6"/><path d="m335.601562 109.121094c-5.800781 5.929687-13.453124 8.890625-21.101562 8.890625s-15.300781-2.960938-21.070312-8.863281l-5.25-5.347657c-.730469-.75-2.007813-.230469-2.007813.820313v114.96875c0 16.109375-12.902344 29.199218-28.933594 29.5-.417969.011718-.828125.011718-1.238281 0-15.960938-.390625-28.828125-14.039063-28.828125-30.160156v-115.378907c0-1.039062-1.261719-1.5625-2-.832031l-6.640625 6.652344c-5.761719 5.757812-13.3125 8.640625-20.859375 8.640625-7.550781 0-15.101563-2.882813-20.863281-8.640625-11.527344-11.53125-11.527344-30.199219 0-41.730469l59-59c5.179687-5.191406 12.300781-8.460937 20.191406-8.6210938.21875-.0195312.449219-.0195312.671875-.0195312 7.957031 0 15.179687 3.148438 20.488281 8.269531.03125.03125.050782.050781.078125.082031.050781.046876.101563.097657.152344.148438.039063.039062.078125.070312.109375.109375.058594.050781.109375.109375.171875.160156.019531.03125.046875.050781.066406.082031l57.371094 58.539063c11.3125 11.539063 11.78125 30.1875.492187 41.730469zm0 0" fill="#3caafd"/><path d="m335.601562 109.121094c-5.800781 5.929687-13.453124 8.890625-21.101562 8.890625s-15.300781-2.960938-21.070312-8.863281l-5.25-5.347657c-.730469-.75-2.007813-.230469-2.007813.820313v114.96875c0 16.109375-12.902344 29.199218-28.933594 29.5-.417969.011718-.828125.011718-1.238281 0v-249.0703128c.21875-.0195312.449219-.0195312.671875-.0195312 7.957031 0 15.179687 3.148438 20.488281 8.269531.03125.03125.050782.050781.078125.082031.050781.046876.101563.097657.152344.148438.039063.039062.078125.070312.109375.109375.058594.050781.109375.109375.171875.160156.019531.03125.046875.050781.066406.082031l57.371094 58.539063c11.3125 11.539063 11.78125 30.1875.492187 41.730469zm0 0" fill="#0083db"/></svg>